REM DIRINDEX 1\2,1\3,1\4,1\5,1\6,1\7,1\8
REM DIRNAME folder01,folder02,folder03,folder04,folder05,folder06,folder07,folder08
TITLE ""
FILE "32_Ch7_Health_Beauty_Behavier.mp3" MP3
  TRACK 01 AUDIO
    TITLE "0:"
    INDEX 01 00:00:00
  TRACK 02 AUDIO
    TITLE "8:cjc152_1727"
    INDEX 01 00:00:13
  TRACK 03 AUDIO
    TITLE "0:"
    INDEX 01 00:03:29
  TRACK 04 AUDIO
    TITLE "8:cjc152_1728"
    INDEX 01 00:04:11
  TRACK 05 AUDIO
    TITLE "0:"
    INDEX 01 00:05:52
  TRACK 06 AUDIO
    TITLE "3:cjc152_1729"
    INDEX 01 00:06:45
  TRACK 07 AUDIO
    TITLE "0:"
    INDEX 01 00:08:09
  TRACK 08 AUDIO
    TITLE "3:cjc152_1730"
    INDEX 01 00:09:26
  TRACK 09 AUDIO
    TITLE "0:"
    INDEX 01 00:10:55
  TRACK 10 AUDIO
    TITLE "3:cjc152_1731"
    INDEX 01 00:12:40
  TRACK 11 AUDIO
    TITLE "0:"
    INDEX 01 00:15:01
  TRACK 12 AUDIO
    TITLE "3:cjc152_1732"
    INDEX 01 00:15:70
  TRACK 13 AUDIO
    TITLE "0:"
    INDEX 01 00:18:13
  TRACK 14 AUDIO
    TITLE "3:cjc152_1733"
    INDEX 01 00:19:69
  TRACK 15 AUDIO
    TITLE "0:"
    INDEX 01 00:22:23
  TRACK 16 AUDIO
    TITLE "3:cjc152_1734"
    INDEX 01 00:23:16
  TRACK 17 AUDIO
    TITLE "0:"
    INDEX 01 00:25:39
  TRACK 18 AUDIO
    TITLE "3:cjc152_1735"
    INDEX 01 00:27:24
  TRACK 19 AUDIO
    TITLE "0:"
    INDEX 01 00:29:07
  TRACK 20 AUDIO
    TITLE "3:cjc152_1736"
    INDEX 01 00:30:01
  TRACK 21 AUDIO
    TITLE "0:"
    INDEX 01 00:32:00
  TRACK 22 AUDIO
    TITLE "3:cjc152_1737"
    INDEX 01 00:33:58
  TRACK 23 AUDIO
    TITLE "0:"
    INDEX 01 00:36:40
  TRACK 24 AUDIO
    TITLE "3:cjc152_1738"
    INDEX 01 00:37:34
  TRACK 25 AUDIO
    TITLE "0:"
    INDEX 01 00:40:19
  TRACK 26 AUDIO
    TITLE "3:cjc152_1739"
    INDEX 01 00:42:04
  TRACK 27 AUDIO
    TITLE "0:"
    INDEX 01 00:44:26
  TRACK 28 AUDIO
    TITLE "3:cjc152_1740"
    INDEX 01 00:45:20
  TRACK 29 AUDIO
    TITLE "0:"
    INDEX 01 00:47:72
  TRACK 30 AUDIO
    TITLE "3:cjc152_1741"
    INDEX 01 00:49:53
  TRACK 31 AUDIO
    TITLE "0:"
    INDEX 01 00:51:52
  TRACK 32 AUDIO
    TITLE "3:cjc152_1742"
    INDEX 01 00:52:45
  TRACK 33 AUDIO
    TITLE "0:"
    INDEX 01 00:54:48
  TRACK 34 AUDIO
    TITLE "3:cjc152_1743"
    INDEX 01 00:56:31
  TRACK 35 AUDIO
    TITLE "0:"
    INDEX 01 00:58:07
  TRACK 36 AUDIO
    TITLE "3:cjc152_1744"
    INDEX 01 00:59:00
  TRACK 37 AUDIO
    TITLE "0:"
    INDEX 01 01:01:17
  TRACK 38 AUDIO
    TITLE "3:cjc152_1745"
    INDEX 01 01:03:02
  TRACK 39 AUDIO
    TITLE "0:"
    INDEX 01 01:06:02
  TRACK 40 AUDIO
    TITLE "3:cjc152_1746"
    INDEX 01 01:06:71
  TRACK 41 AUDIO
    TITLE "0:"
    INDEX 01 01:09:42
  TRACK 42 AUDIO
    TITLE "3:cjc152_1747"
    INDEX 01 01:11:25
  TRACK 43 AUDIO
    TITLE "0:"
    INDEX 01 01:13:47
  TRACK 44 AUDIO
    TITLE "3:cjc152_1748"
    INDEX 01 01:14:41
  TRACK 45 AUDIO
    TITLE "0:"
    INDEX 01 01:16:36
  TRACK 46 AUDIO
    TITLE "3:cjc152_1749"
    INDEX 01 01:18:19
  TRACK 47 AUDIO
    TITLE "0:"
    INDEX 01 01:19:68
  TRACK 48 AUDIO
    TITLE "3:cjc152_1750"
    INDEX 01 01:20:59
  TRACK 49 AUDIO
    TITLE "0:"
    INDEX 01 01:22:56
  TRACK 50 AUDIO
    TITLE "3:cjc152_1751"
    INDEX 01 01:24:63
  TRACK 51 AUDIO
    TITLE "0:"
    INDEX 01 01:28:47
  TRACK 52 AUDIO
    TITLE "3:cjc152_1752"
    INDEX 01 01:29:60
  TRACK 53 AUDIO
    TITLE "0:"
    INDEX 01 01:33:15
  TRACK 54 AUDIO
    TITLE "3:cjc152_1753"
    INDEX 01 01:34:73
  TRACK 55 AUDIO
    TITLE "0:"
    INDEX 01 01:37:26
  TRACK 56 AUDIO
    TITLE "3:cjc152_1754"
    INDEX 01 01:38:18
  TRACK 57 AUDIO
    TITLE "0:"
    INDEX 01 01:40:13
  TRACK 58 AUDIO
    TITLE "3:cjc152_1755"
    INDEX 01 01:41:71
  TRACK 59 AUDIO
    TITLE "0:"
    INDEX 01 01:43:45
  TRACK 60 AUDIO
    TITLE "3:cjc152_1756"
    INDEX 01 01:44:36
  TRACK 61 AUDIO
    TITLE "0:"
    INDEX 01 01:46:02
  TRACK 62 AUDIO
    TITLE "3:cjc152_1757"
    INDEX 01 01:47:60
  TRACK 63 AUDIO
    TITLE "0:"
    INDEX 01 01:49:14
  TRACK 64 AUDIO
    TITLE "3:cjc152_1758"
    INDEX 01 01:50:06
  TRACK 65 AUDIO
    TITLE "0:"
    INDEX 01 01:51:66
  TRACK 66 AUDIO
    TITLE "3:cjc152_1759"
    INDEX 01 01:53:47
  TRACK 67 AUDIO
    TITLE "0:"
    INDEX 01 01:55:34
  TRACK 68 AUDIO
    TITLE "3:cjc152_1760"
    INDEX 01 01:56:26
  TRACK 69 AUDIO
    TITLE "0:"
    INDEX 01 01:59:16
  TRACK 70 AUDIO
    TITLE "3:cjc152_1761"
    INDEX 01 02:01:25
  TRACK 71 AUDIO
    TITLE "0:"
    INDEX 01 02:04:17
  TRACK 72 AUDIO
    TITLE "3:cjc152_1762"
    INDEX 01 02:05:11
  TRACK 73 AUDIO
    TITLE "0:"
    INDEX 01 02:08:13
  TRACK 74 AUDIO
    TITLE "3:cjc152_1763"
    INDEX 01 02:09:73
  TRACK 75 AUDIO
    TITLE "0:"
    INDEX 01 02:12:42
  TRACK 76 AUDIO
    TITLE "3:cjc152_1764"
    INDEX 01 02:13:38
  TRACK 77 AUDIO
    TITLE "0:"
    INDEX 01 02:17:04
  TRACK 78 AUDIO
    TITLE "3:cjc152_1765"
    INDEX 01 02:18:74
  TRACK 79 AUDIO
    TITLE "0:"
    INDEX 01 02:23:17
  TRACK 80 AUDIO
    TITLE "3:cjc152_1766"
    INDEX 01 02:24:10
  TRACK 81 AUDIO
    TITLE "0:"
    INDEX 01 02:29:06
  TRACK 82 AUDIO
    TITLE "3:cjc152_1767"
    INDEX 01 02:30:62
  TRACK 83 AUDIO
    TITLE "0:"
    INDEX 01 02:35:53
  TRACK 84 AUDIO
    TITLE "3:cjc152_1768"
    INDEX 01 02:36:47
  TRACK 85 AUDIO
    TITLE "0:"
    INDEX 01 02:41:68
  TRACK 86 AUDIO
    TITLE "3:cjc152_1769"
    INDEX 01 02:43:53
  TRACK 87 AUDIO
    TITLE "0:"
    INDEX 01 02:45:24
  TRACK 88 AUDIO
    TITLE "3:cjc152_1770"
    INDEX 01 02:46:18
  TRACK 89 AUDIO
    TITLE "0:"
    INDEX 01 02:48:01
  TRACK 90 AUDIO
    TITLE "3:cjc152_1771"
    INDEX 01 02:49:55
  TRACK 91 AUDIO
    TITLE "0:"
    INDEX 01 02:51:29
  TRACK 92 AUDIO
    TITLE "3:cjc152_1772"
    INDEX 01 02:52:22
  TRACK 93 AUDIO
    TITLE "0:"
    INDEX 01 02:53:71
  TRACK 94 AUDIO
    TITLE "3:cjc152_1773"
    INDEX 01 02:55:56
  TRACK 95 AUDIO
    TITLE "0:"
    INDEX 01 02:58:33
  TRACK 96 AUDIO
    TITLE "3:cjc152_1774"
    INDEX 01 02:59:24
  TRACK 97 AUDIO
    TITLE "0:"
    INDEX 01 03:02:29
  TRACK 98 AUDIO
    TITLE "3:cjc152_1775"
    INDEX 01 03:04:10
  TRACK 99 AUDIO
    TITLE "0:"
    INDEX 01 03:05:52
  TRACK 100 AUDIO
    TITLE "3:cjc152_1776"
    INDEX 01 03:06:58
  TRACK 101 AUDIO
    TITLE "0:"
    INDEX 01 03:08:39
  TRACK 102 AUDIO
    TITLE "3:cjc152_1777"
    INDEX 01 03:10:24
  TRACK 103 AUDIO
    TITLE "0:"
    INDEX 01 03:11:65
  TRACK 104 AUDIO
    TITLE "3:cjc152_1778"
    INDEX 01 03:12:60
  TRACK 105 AUDIO
    TITLE "0:"
    INDEX 01 03:14:47
  TRACK 106 AUDIO
    TITLE "3:cjc152_1779"
    INDEX 01 03:16:33
  TRACK 107 AUDIO
    TITLE "0:"
    INDEX 01 03:18:00
  TRACK 108 AUDIO
    TITLE "3:cjc152_1780"
    INDEX 01 03:18:67
  TRACK 109 AUDIO
    TITLE "0:"
    INDEX 01 03:20:23
  TRACK 110 AUDIO
    TITLE "3:cjc152_1781"
    INDEX 01 03:22:06
  TRACK 111 AUDIO
    TITLE "0:"
    INDEX 01 03:23:54
  TRACK 112 AUDIO
    TITLE "3:cjc152_1782"
    INDEX 01 03:24:60
  TRACK 113 AUDIO
    TITLE "0:"
    INDEX 01 03:26:53
  TRACK 114 AUDIO
    TITLE "3:cjc152_1783"
    INDEX 01 03:28:36
  TRACK 115 AUDIO
    TITLE "0:"
    INDEX 01 03:29:70
  TRACK 116 AUDIO
    TITLE "3:cjc152_1784"
    INDEX 01 03:30:62
  TRACK 117 AUDIO
    TITLE "0:"
    INDEX 01 03:32:24
  TRACK 118 AUDIO
    TITLE "3:cjc152_1785"
    INDEX 01 03:34:07
  TRACK 119 AUDIO
    TITLE "0:"
    INDEX 01 03:35:65
  TRACK 120 AUDIO
    TITLE "3:cjc152_1786"
    INDEX 01 03:36:59
  TRACK 121 AUDIO
    TITLE "0:"
    INDEX 01 03:39:34
  TRACK 122 AUDIO
    TITLE "3:cjc152_1787"
    INDEX 01 03:41:15
  TRACK 123 AUDIO
    TITLE "0:"
    INDEX 01 03:43:04
  TRACK 124 AUDIO
    TITLE "3:cjc152_1788"
    INDEX 01 03:44:00
  TRACK 125 AUDIO
    TITLE "0:"
    INDEX 01 03:45:54
  TRACK 126 AUDIO
    TITLE "3:cjc152_1789"
    INDEX 01 03:47:43
  TRACK 127 AUDIO
    TITLE "0:"
    INDEX 01 03:48:72
  TRACK 128 AUDIO
    TITLE "3:cjc152_1790"
    INDEX 01 03:49:63
  TRACK 129 AUDIO
    TITLE "0:"
    INDEX 01 03:51:66
  TRACK 130 AUDIO
    TITLE "3:cjc152_1791"
    INDEX 01 03:53:51
  TRACK 131 AUDIO
    TITLE "0:"
    INDEX 01 03:56:36
  TRACK 132 AUDIO
    TITLE "3:cjc152_1792"
    INDEX 01 03:57:32
  TRACK 133 AUDIO
    TITLE "0:"
    INDEX 01 03:58:66
  TRACK 134 AUDIO
    TITLE "3:cjc152_1793"
    INDEX 01 04:00:51
  TRACK 135 AUDIO
    TITLE "0:"
    INDEX 01 04:02:07
  TRACK 136 AUDIO
    TITLE "3:cjc152_1794"
    INDEX 01 04:03:01
  TRACK 137 AUDIO
    TITLE "0:"
    INDEX 01 04:04:57
  TRACK 138 AUDIO
    TITLE "3:cjc152_1795"
    INDEX 01 04:06:40
  TRACK 139 AUDIO
    TITLE "0:"
    INDEX 01 04:09:01
  TRACK 140 AUDIO
    TITLE "3:cjc152_1796"
    INDEX 01 04:09:72
  TRACK 141 AUDIO
    TITLE "0:"
    INDEX 01 04:12:25
  TRACK 142 AUDIO
    TITLE "3:cjc152_1797"
    INDEX 01 04:14:08
  TRACK 143 AUDIO
    TITLE "0:"
    INDEX 01 04:15:35
  TRACK 144 AUDIO
    TITLE "3:cjc152_1798"
    INDEX 01 04:16:29
  TRACK 145 AUDIO
    TITLE "0:"
    INDEX 01 04:17:68
  TRACK 146 AUDIO
    TITLE "3:cjc152_1799"
    INDEX 01 04:19:51
  TRACK 147 AUDIO
    TITLE "0:"
    INDEX 01 04:21:22
  TRACK 148 AUDIO
    TITLE "3:cjc152_1800"
    INDEX 01 04:22:18
  TRACK 149 AUDIO
    TITLE "0:"
    INDEX 01 04:24:17
  TRACK 150 AUDIO
    TITLE "3:cjc152_1801"
    INDEX 01 04:25:73
  TRACK 151 AUDIO
    TITLE "0:"
    INDEX 01 04:27:50
  TRACK 152 AUDIO
    TITLE "3:cjc152_1802"
    INDEX 01 04:28:44
  TRACK 153 AUDIO
    TITLE "0:"
    INDEX 01 04:30:07
  TRACK 154 AUDIO
    TITLE "3:cjc152_1803"
    INDEX 01 04:31:68
  TRACK 155 AUDIO
    TITLE "0:"
    INDEX 01 04:33:39
  TRACK 156 AUDIO
    TITLE "3:cjc152_1804"
    INDEX 01 04:34:35
  TRACK 157 AUDIO
    TITLE "0:"
    INDEX 01 04:36:20
  TRACK 158 AUDIO
    TITLE "3:cjc152_1805"
    INDEX 01 04:38:05
  TRACK 159 AUDIO
    TITLE "0:"
    INDEX 01 04:39:71
  TRACK 160 AUDIO
    TITLE "3:cjc152_1806"
    INDEX 01 04:40:69
  TRACK 161 AUDIO
    TITLE "0:"
    INDEX 01 04:43:53
  TRACK 162 AUDIO
    TITLE "3:cjc152_1807"
    INDEX 01 04:45:38
  TRACK 163 AUDIO
    TITLE "0:"
    INDEX 01 04:47:35
  TRACK 164 AUDIO
    TITLE "3:cjc152_1808"
    INDEX 01 04:48:29
  TRACK 165 AUDIO
    TITLE "0:"
    INDEX 01 04:50:59
  TRACK 166 AUDIO
    TITLE "3:cjc152_1809"
    INDEX 01 04:52:44
  TRACK 167 AUDIO
    TITLE "0:"
    INDEX 01 04:53:69
  TRACK 168 AUDIO
    TITLE "3:cjc152_1810"
    INDEX 01 04:54:63
  TRACK 169 AUDIO
    TITLE "0:"
    INDEX 01 04:56:36
  TRACK 170 AUDIO
    TITLE "3:cjc152_1811"
    INDEX 01 04:58:19
  TRACK 171 AUDIO
    TITLE "0:"
    INDEX 01 04:59:66
  TRACK 172 AUDIO
    TITLE "3:cjc152_1812"
    INDEX 01 05:00:60
  TRACK 173 AUDIO
    TITLE "0:"
    INDEX 01 05:02:53
  TRACK 174 AUDIO
    TITLE "3:cjc152_1813"
    INDEX 01 05:04:34
  TRACK 175 AUDIO
    TITLE "0:"
    INDEX 01 05:06:35
  TRACK 176 AUDIO
    TITLE "3:cjc152_1814"
    INDEX 01 05:07:36
  TRACK 177 AUDIO
    TITLE "0:"
    INDEX 01 05:10:19
  TRACK 178 AUDIO
    TITLE "3:cjc152_1815"
    INDEX 01 05:12:02
  TRACK 179 AUDIO
    TITLE "0:"
    INDEX 01 05:13:50
  TRACK 180 AUDIO
    TITLE "3:cjc152_1816"
    INDEX 01 05:14:42
  TRACK 181 AUDIO
    TITLE "0:"
    INDEX 01 05:17:60
